<svg width="504" height="137" viewBox="0 0 504 137" fill="none" xmlns="http://www.w3.org/2000/svg">
<rect x="98" y="28.1655" width="245.035" height="53.816" transform="rotate(-6.60045 98 28.1655)" fill="#EC5353"/>
<path d="M121.516 41.7893L122.056 41.7269L125.572 50.1373L123.441 63.7062L117.09 64.441L121.516 41.7893ZM130.741 58.9356L125.438 59.5492L126.206 54.5047L128.746 54.2108L123.485 41.5615L129.296 40.8891L138.778 61.9315L132.301 62.681L130.741 58.9356Z" fill="white"/>
<path d="M137.907 38.1229L143.781 37.4432L146.511 61.0367L140.637 61.7164L137.907 38.1229Z" fill="white"/>
<path d="M160.599 59.6318C159.837 59.72 159.205 59.7288 158.703 59.6581C158.204 59.6086 157.723 59.439 157.261 59.1492L156.794 55.1164L157.143 55.076C157.609 55.0221 157.935 54.963 158.12 54.8986C158.325 54.8106 158.469 54.6652 158.553 54.4624C158.631 54.2173 158.656 53.8713 158.625 53.4243C158.61 53.1043 158.545 52.4468 158.429 51.4518C158.314 50.4568 158.228 49.8018 158.17 49.4867C158.095 49.0234 157.992 48.6921 157.862 48.4926C157.753 48.2907 157.579 48.1821 157.341 48.1667C157.04 48.1586 156.71 48.1754 156.35 48.2171L156 48.2575L155.534 44.2247C155.92 43.8582 156.36 43.582 156.854 43.3962C157.368 43.2079 157.975 43.0734 158.673 42.9925C159.52 42.8946 160.256 42.9489 160.88 43.1555C161.526 43.3597 162.075 43.7466 162.527 44.3165C163.41 45.4586 164.032 47.5856 164.392 50.6975C164.75 53.7883 164.631 56.0116 164.037 57.3675C163.439 58.6811 162.292 59.4359 160.599 59.6318ZM148.252 44.4237L154.127 43.7439L156.732 66.2578L150.857 66.9375L148.252 44.4237Z" fill="white"/>
<path d="M165.754 34.9007L171.628 34.2209L174.358 57.8144L168.484 58.4942L165.754 34.9007ZM176.775 49.7795C176.646 48.6575 176.549 47.9178 176.486 47.5603C176.375 46.9725 176.277 46.587 176.192 46.4038C176.083 46.2019 175.92 46.092 175.703 46.0742C175.484 46.0352 175.142 46.0426 174.676 46.0965L174.358 46.1333L173.91 42.2592C174.678 41.4838 175.719 41.0202 177.031 40.8683C178.937 40.6478 180.285 41.0818 181.076 42.1702C181.431 42.644 181.704 43.2452 181.896 43.9739C182.085 44.6814 182.241 45.5644 182.363 46.6229L183.535 56.7525L177.661 57.4323L176.775 49.7795Z" fill="white"/>
<path d="M194.279 45.3407C194.215 44.7903 194.149 44.4011 194.079 44.1731C194.01 43.9451 193.863 43.7905 193.639 43.7091C193.437 43.6253 193.068 43.5929 192.534 43.6118C192.214 43.6273 191.525 43.6964 190.466 43.8188C189.45 43.9364 188.513 44.0878 187.655 44.2729L185.983 44.5629L185.505 40.4348C187.451 39.8235 189.578 39.3843 191.885 39.1173C193.664 38.9116 195.065 38.8781 196.089 39.0171C197.135 39.1535 197.943 39.4675 198.515 39.9592C199.019 40.4158 199.379 41.0284 199.597 41.797C199.836 42.5631 200.036 43.6448 200.197 45.042L201.314 54.6953L195.44 55.375L194.279 45.3407ZM190.766 56.1411C189.305 56.3102 188.179 56.0329 187.387 55.3092C186.593 54.5645 186.101 53.3665 185.91 51.7152C185.792 50.6991 185.772 49.8755 185.849 49.2444C185.924 48.5922 186.12 48.0653 186.438 47.6638C186.754 47.2411 187.221 46.9189 187.839 46.6972C188.454 46.4544 189.281 46.273 190.318 46.1529L192.993 45.9078L193.32 48.7339L193.002 48.7707C192.515 48.827 192.199 48.8743 192.053 48.9127C191.632 48.9828 191.433 49.2097 191.456 49.5932C191.45 49.7226 191.47 49.9885 191.516 50.3907C191.553 50.7082 191.592 50.9505 191.633 51.1174C191.695 51.2818 191.774 51.4121 191.871 51.5081C191.994 51.6441 192.163 51.7104 192.377 51.707C192.678 51.7151 192.998 51.6995 193.337 51.6603L193.654 51.6236L194.029 54.8625C193.605 55.2763 193.134 55.5667 192.617 55.7338C192.124 55.9196 191.507 56.0554 190.766 56.1411Z" fill="white"/>
<path d="M210.834 31.4543L217.184 30.7194L219.712 52.5664L213.361 53.3013L210.834 31.4543ZM220.484 47.5537L221.786 47.403C222.379 47.3344 222.822 47.2724 223.116 47.217C223.428 47.1379 223.652 47.0263 223.785 46.8821C223.919 46.7379 223.993 46.547 224.008 46.3092C224.045 46.069 224.037 45.7266 223.986 45.282C223.932 44.8163 223.86 44.4707 223.77 44.2452C223.7 44.0172 223.584 43.8483 223.421 43.7384C223.143 43.5561 222.453 43.5286 221.352 43.656L220.05 43.8067L219.488 38.9482L220.6 38.8196C221.192 38.7511 221.636 38.689 221.93 38.6336C222.242 38.5545 222.465 38.4429 222.599 38.2987C222.732 38.1545 222.808 37.9741 222.826 37.7576C222.862 37.5173 222.857 37.1961 222.811 36.7939C222.762 36.3705 222.693 36.0566 222.605 35.8523C222.536 35.6243 222.42 35.4554 222.257 35.3455C222.094 35.2357 221.853 35.1885 221.533 35.2041C221.231 35.196 220.784 35.2263 220.192 35.2949L219.08 35.4235L218.518 30.5651L222.138 30.1462C226.393 29.6538 228.733 31.2388 229.156 34.9012C229.335 36.4466 229.163 37.6464 228.64 38.5007C228.138 39.3526 227.249 40.0132 225.973 40.4826L225.988 40.6097C227.4 40.768 228.442 41.1516 229.113 41.7604C229.884 42.4864 230.367 43.6963 230.563 45.3898C230.788 47.3374 230.439 48.8581 229.514 49.952C228.59 51.0458 226.984 51.725 224.698 51.9896L221.046 52.4121L220.484 47.5537Z" fill="white"/>
<path d="M238.947 50.566C237.042 50.7865 235.694 50.3525 234.903 49.2641C234.547 48.7903 234.275 48.1997 234.086 47.4922C233.895 46.7635 233.738 45.8699 233.615 44.8114L232.443 34.6818L238.318 34.002L239.203 41.6548C239.333 42.7768 239.429 43.5165 239.492 43.874C239.596 44.3983 239.703 44.772 239.815 44.9951C239.926 45.2181 240.081 45.3504 240.279 45.3919C240.475 45.4122 240.816 45.3941 241.303 45.3378L241.62 45.301L242.079 49.2703C241.325 49.9798 240.281 50.4117 238.947 50.566ZM241.62 33.6199L247.495 32.9401L249.368 49.1349L243.494 49.8146L241.62 33.6199Z" fill="white"/>
<path d="M258.427 32.6083C258.823 32.1334 259.307 31.7771 259.88 31.5391C260.472 31.2775 261.213 31.0953 262.102 30.9924L262.716 36.2954C261.763 36.4057 260.987 36.5598 260.388 36.7579C259.81 36.9535 259.349 37.2321 259.004 37.5937L258.427 32.6083ZM251.113 32.5215L256.987 31.8417L258.861 48.0365L252.986 48.7162L251.113 32.5215Z" fill="white"/>
<path d="M270.597 46.582C269.75 46.68 269.014 46.6256 268.39 46.419C267.763 46.1912 267.222 45.7818 266.767 45.1908C265.863 44.0512 265.235 41.9572 264.882 38.9087C264.527 35.8392 264.662 33.6675 265.286 32.3938C265.599 31.757 266.036 31.2667 266.597 30.9229C267.157 30.5791 267.861 30.3582 268.708 30.2602C269.428 30.1769 270.049 30.1694 270.572 30.2376C271.095 30.3059 271.587 30.4848 272.05 30.7746L272.513 34.7756L272.164 34.816C271.698 34.8699 271.363 34.9409 271.158 35.0289C270.973 35.0933 270.837 35.2162 270.751 35.3979C270.672 35.643 270.646 35.9784 270.674 36.4043C270.687 36.7031 270.749 37.3288 270.859 38.2815C270.969 39.2341 271.052 39.8574 271.108 40.1513C271.18 40.5934 271.282 40.9142 271.412 41.1136C271.54 41.2919 271.723 41.3888 271.961 41.4041C272.262 41.4122 272.582 41.3966 272.92 41.3574L273.27 41.317L273.736 45.3498C273.352 45.7375 272.924 46.0231 272.452 46.2064C271.977 46.3686 271.359 46.4938 270.597 46.582ZM273.492 52.9725C272.434 53.0949 271.156 53.1784 269.66 53.2228L267.732 53.2528L267.258 49.1565L271.513 48.6641C272.275 48.5759 273.014 48.469 273.729 48.3434C274.253 48.2398 274.622 48.0899 274.835 47.8936C275.072 47.716 275.2 47.433 275.22 47.0446C275.203 46.5316 275.162 45.9894 275.096 45.4178L273.306 29.9534L279.181 29.2736L280.849 43.6901C281.04 45.3414 281.116 46.6413 281.075 47.5899C281.037 48.5597 280.811 49.3903 280.398 50.0817C279.928 50.844 279.142 51.4606 278.038 51.9316C276.955 52.4001 275.44 52.7471 273.492 52.9725Z" fill="white"/>
<path d="M290.258 34.5887L292.481 34.3315C292.344 33.146 292.139 32.3973 291.867 32.0856C291.718 31.9097 291.535 31.8129 291.319 31.795C291.1 31.756 290.789 31.7598 290.387 31.8063L289.942 31.8578L289.476 27.825L289.92 27.7735C291.741 27.5629 293.155 27.5494 294.163 27.7331C295.193 27.9143 295.979 28.3167 296.523 28.9402C297.015 29.484 297.358 30.2167 297.55 31.1384C297.764 32.0576 297.978 33.4487 298.194 35.3116L298.341 36.5818L290.593 37.4783L290.258 34.5887ZM292.488 44.4029C290.54 44.6282 288.987 44.647 287.829 44.4593C286.689 44.248 285.802 43.8143 285.168 43.1582C284.608 42.5794 284.199 41.8329 283.943 40.9186C283.685 39.9831 283.46 38.6898 283.269 37.0385C283.093 35.5143 283.006 34.3015 283.009 33.4002C283.01 32.4776 283.143 31.6792 283.408 31.0049C283.708 30.2622 284.228 29.6551 284.967 29.1834C285.725 28.6881 286.786 28.3079 288.149 28.0428L289.259 37.6326C289.342 38.3524 289.434 38.8674 289.534 39.1776C289.632 39.4666 289.806 39.6717 290.056 39.793C290.33 39.9329 290.732 39.9829 291.264 39.9428C291.946 39.9068 292.669 39.8446 293.431 39.7565C294.786 39.5997 295.766 39.454 296.373 39.3195L297.978 39.0051L298.452 43.1014C297.634 43.4534 296.489 43.7575 295.017 44.0136C294.305 44.1604 293.462 44.2902 292.488 44.4029Z" fill="white"/>
<path d="M307.796 26.8958C308.191 26.421 308.675 26.0646 309.249 25.8266C309.84 25.5651 310.581 25.3828 311.47 25.28L312.084 30.5829C311.131 30.6932 310.355 30.8473 309.756 31.0454C309.178 31.241 308.717 31.5196 308.372 31.8812L307.796 26.8958ZM300.481 26.809L306.355 26.1292L308.229 42.324L302.355 43.0037L300.481 26.809Z" fill="white"/>
<path d="M326.484 28.2731C326.079 28.2984 325.523 28.3092 324.814 28.3054C323.487 28.3302 322.421 28.3892 321.617 28.4823L320.569 28.6035L320.069 24.2849C321.572 24.111 323.014 24.0515 324.393 24.1064L326.014 24.2085L326.484 28.2731ZM322.673 35.6648C322.637 35.3473 322.56 35.1523 322.445 35.0798C322.329 35.0074 322.099 34.9696 321.756 34.9665L318.271 34.887C317.41 34.8579 316.698 34.7364 316.137 34.5225C315.597 34.3061 315.174 33.9797 314.866 33.5434C314.565 33.1705 314.339 32.7032 314.189 32.1414C314.038 31.5797 313.913 30.8754 313.815 30.0286C313.614 28.2927 313.986 26.9625 314.93 26.038C315.725 25.3025 316.994 24.7802 318.739 24.471L319.316 29.4564C319.353 29.774 319.42 29.9808 319.517 30.0768C319.611 30.1517 319.884 30.1952 320.336 30.2073L324.206 30.2744C324.763 30.2742 325.253 30.3355 325.675 30.4584C326.094 30.56 326.46 30.7537 326.772 31.0394C327.464 31.6458 327.922 32.9122 328.145 34.8386C328.38 36.8709 328.025 38.3493 327.081 39.2737C326.249 40.0565 324.978 40.5682 323.269 40.809L322.673 35.6648ZM321.939 40.9951C320.243 41.1699 318.748 41.2355 317.456 41.1919L315.613 41.1156L315.143 37.051C315.999 37.0377 317.152 36.9901 318.602 36.9082C319.411 36.8575 319.985 36.8125 320.324 36.7733L321.435 36.6447L321.939 40.9951Z" fill="white"/>
<g filter="url(#filter0_d)">
<path d="M8.73547 128.035C8.18598 128.064 7.70096 127.889 7.2804 127.51C6.85984 127.132 6.63517 126.668 6.60639 126.119L4.07071 77.7351C4.04192 77.1858 4.21688 76.701 4.59557 76.2806C4.97426 75.8602 5.43835 75.6356 5.98783 75.6068L44.4269 73.5923C44.9764 73.5635 45.4614 73.7384 45.882 74.1169C46.3025 74.4954 46.5272 74.9593 46.556 75.5085L47.1094 86.069C47.1382 86.6183 46.9633 87.1031 46.5846 87.5235C46.2059 87.9439 45.7418 88.1685 45.1923 88.1973L22.7133 89.3753L22.9606 94.0939L43.7911 93.0022C44.3406 92.9734 44.8257 93.1482 45.2462 93.5267C45.6668 93.9053 45.8914 94.3691 45.9202 94.9184L46.4305 104.655C46.4593 105.204 46.2843 105.689 45.9056 106.109C45.527 106.53 45.0629 106.754 44.5134 106.783L23.6828 107.875L23.9301 112.593L47.0086 111.384C47.5581 111.355 48.0431 111.53 48.4636 111.909C48.8842 112.287 49.1089 112.751 49.1377 113.3L49.6911 123.861C49.7199 124.41 49.5449 124.895 49.1662 125.315C48.7876 125.736 48.3235 125.96 47.774 125.989L8.73547 128.035Z" fill="white"/>
<path d="M54.2174 125.651C53.7678 125.675 53.3603 125.546 52.9949 125.265C52.6769 124.931 52.5061 124.539 52.4826 124.09C52.4669 123.79 52.5274 123.512 52.6642 123.254L67.1238 98.088L51.7491 75.687C51.5836 75.3952 51.4942 75.1245 51.4812 74.8749C51.4576 74.4255 51.5878 74.0432 51.8719 73.7279C52.2032 73.36 52.5937 73.1643 53.0433 73.1407L69.3031 72.2886C70.7018 72.2153 71.7835 72.7845 72.5482 73.9961L78.2722 82.8587L83.488 73.4228C84.1219 72.1378 85.1383 71.4587 86.5369 71.3854L102.047 70.5725C102.497 70.549 102.881 70.7041 103.199 71.0379C103.564 71.3192 103.759 71.6845 103.782 72.1339C103.798 72.4335 103.737 72.712 103.601 72.9695L90.3403 96.646L107.588 120.376C107.751 120.618 107.84 120.888 107.856 121.188C107.879 121.637 107.725 122.046 107.394 122.414C107.11 122.729 106.743 122.898 106.294 122.922L89.4344 123.806C88.0857 123.876 87.0316 123.356 86.272 122.244L79.2272 112.549L73.5339 122.912C72.8948 124.097 71.9008 124.725 70.5521 124.795L54.2174 125.651Z" fill="white"/>
<path d="M114.106 122.513C113.556 122.541 113.071 122.367 112.651 121.988C112.23 121.61 112.005 121.146 111.977 120.596L109.441 72.2128C109.412 71.6636 109.587 71.1788 109.966 70.7584C110.344 70.338 110.809 70.1134 111.358 70.0846L134.062 68.8947C141.055 68.5282 146.631 69.7881 150.79 72.6744C154.998 75.5581 157.261 80.0208 157.577 86.0626C157.891 92.0543 156.128 96.6279 152.286 99.7833C148.441 102.889 142.997 104.626 135.954 104.995L130.709 105.27L131.458 119.575C131.487 120.125 131.312 120.61 130.934 121.03C130.555 121.45 130.091 121.675 129.541 121.704L114.106 122.513ZM134.853 91.1588C135.752 91.1117 136.534 90.7453 137.2 90.0595C137.862 89.3238 138.158 88.2819 138.088 86.9338C138.028 85.7853 137.701 84.8011 137.107 83.9811C136.513 83.161 135.616 82.7824 134.417 82.8453L129.172 83.1201L129.608 91.4337L134.853 91.1588Z" fill="white"/>
<path d="M166.937 119.744C166.388 119.773 165.903 119.598 165.482 119.219C165.062 118.841 164.837 118.377 164.808 117.828L162.272 69.4441C162.244 68.8948 162.419 68.41 162.797 67.9896C163.176 67.5692 163.64 67.3446 164.19 67.3158L202.629 65.3013C203.178 65.2725 203.663 65.4474 204.084 65.8259C204.504 66.2044 204.729 66.6683 204.758 67.2175L205.311 77.778C205.34 78.3273 205.165 78.8121 204.786 79.2325C204.408 79.6529 203.944 79.8775 203.394 79.9063L180.915 81.0843L181.162 85.8029L201.993 84.7112C202.542 84.6824 203.027 84.8572 203.448 85.2357C203.868 85.6143 204.093 86.0781 204.122 86.6274L204.632 96.364C204.661 96.9133 204.486 97.3981 204.107 97.8185C203.729 98.2389 203.265 98.4635 202.715 98.4923L181.885 99.5839L182.132 104.302L205.21 103.093C205.76 103.064 206.245 103.239 206.665 103.618C207.086 103.996 207.311 104.46 207.339 105.009L207.893 115.57C207.922 116.119 207.747 116.604 207.368 117.024C206.989 117.445 206.525 117.669 205.976 117.698L166.937 119.744Z" fill="white"/>
<path d="M216.915 117.125C216.365 117.153 215.88 116.979 215.46 116.6C215.039 116.222 214.815 115.758 214.786 115.208L212.25 66.8248C212.221 66.2756 212.396 65.7908 212.775 65.3704C213.154 64.95 213.618 64.7254 214.167 64.6966L236.346 63.5342C243.54 63.1572 249.245 64.4855 253.461 67.519C257.675 70.5026 259.931 74.8404 260.229 80.5326C260.399 83.7782 259.825 86.6872 258.507 89.2597C257.187 91.7822 255.32 93.9079 252.906 95.6366L263.017 112.23C263.183 112.522 263.272 112.793 263.285 113.042C263.309 113.492 263.155 113.9 262.823 114.268C262.539 114.583 262.173 114.753 261.723 114.776L246.362 115.581C245.463 115.628 244.728 115.467 244.158 115.096C243.635 114.673 243.26 114.217 243.034 113.728L235.841 99.7603L232.769 99.9213L233.518 114.227C233.547 114.776 233.372 115.261 232.993 115.681C232.615 116.102 232.151 116.326 231.601 116.355L216.915 117.125ZM237.493 85.4042C238.592 85.3466 239.423 84.9526 239.985 84.2221C240.546 83.4417 240.797 82.5023 240.739 81.4038C240.682 80.3053 240.332 79.3723 239.691 78.6048C239.097 77.7848 238.226 77.4049 237.077 77.4651L231.607 77.7518L232.023 85.6909L237.493 85.4042Z" fill="white"/>
<path d="M270.99 114.291C270.441 114.319 269.956 114.145 269.535 113.766C269.115 113.388 268.89 112.924 268.861 112.374L266.326 63.9909C266.297 63.4416 266.472 62.9568 266.85 62.5364C267.229 62.116 267.693 61.8914 268.243 61.8626L283.528 61.0615C284.078 61.0327 284.563 61.2076 284.983 61.5861C285.404 61.9646 285.629 62.4285 285.657 62.9777L288.193 111.361C288.222 111.911 288.047 112.395 287.668 112.816C287.29 113.236 286.826 113.461 286.276 113.49L270.99 114.291Z" fill="white"/>
<path d="M298.577 112.845C298.027 112.874 297.542 112.699 297.122 112.32C296.701 111.942 296.477 111.478 296.448 110.929L293.912 62.5451C293.883 61.9959 294.058 61.5111 294.437 61.0907C294.816 60.6703 295.28 60.4457 295.829 60.4169L334.268 58.4024C334.818 58.3736 335.303 58.5484 335.723 58.9269C336.144 59.3054 336.369 59.7693 336.397 60.3186L336.951 70.8791C336.98 71.4283 336.805 71.9131 336.426 72.3335C336.047 72.7539 335.583 72.9785 335.034 73.0073L312.555 74.1854L312.802 78.9039L333.633 77.8122C334.182 77.7834 334.667 77.9583 335.088 78.3368C335.508 78.7153 335.733 79.1792 335.762 79.7284L336.272 89.4651C336.301 90.0143 336.126 90.4991 335.747 90.9195C335.368 91.3399 334.904 91.5645 334.355 91.5933L313.524 92.685L313.771 97.4035L336.85 96.194C337.399 96.1652 337.884 96.3401 338.305 96.7186C338.726 97.0971 338.95 97.561 338.979 98.1102L339.532 108.671C339.561 109.22 339.386 109.705 339.008 110.125C338.629 110.546 338.165 110.77 337.615 110.799L298.577 112.845Z" fill="white"/>
<path d="M348.555 110.226C348.005 110.254 347.52 110.08 347.099 109.701C346.679 109.323 346.454 108.859 346.425 108.309L343.89 59.9259C343.861 59.3767 344.036 58.8918 344.415 58.4714C344.793 58.051 345.257 57.8264 345.807 57.7977L357.646 57.1772C359.045 57.1039 360.099 57.6244 360.808 58.7388L374.559 78.8217L373.487 58.3748C373.458 57.8255 373.633 57.3407 374.012 56.9203C374.391 56.4999 374.855 56.2753 375.404 56.2465L388.967 55.5357C389.516 55.507 390.001 55.6818 390.422 56.0603C390.842 56.4388 391.067 56.9027 391.096 57.4519L393.631 105.836C393.66 106.385 393.485 106.87 393.106 107.29C392.728 107.71 392.264 107.935 391.714 107.964L379.875 108.584C379.026 108.629 378.367 108.488 377.9 108.162C377.432 107.836 377.036 107.456 376.713 107.023L363.049 88.5875L364.034 107.387C364.063 107.936 363.888 108.421 363.509 108.841C363.13 109.262 362.666 109.486 362.117 109.515L348.555 110.226Z" fill="white"/>
<path d="M425.789 106.929C418.246 107.324 412.165 105.991 407.547 102.928C402.926 99.8159 400.285 94.8222 399.624 87.9474C399.503 86.6019 399.363 84.4062 399.204 81.3604C399.041 78.2646 398.949 76.0164 398.925 74.6157C398.874 67.9092 401.033 62.7391 405.401 59.1056C409.766 55.422 415.62 53.3879 422.963 53.003C427.459 52.7674 431.615 53.2255 435.432 54.3773C439.3 55.5265 442.483 57.4876 444.982 60.2606C447.529 62.981 448.942 66.5119 449.219 70.8534C449.243 71.3027 449.089 71.7114 448.758 72.0792C448.474 72.3945 448.107 72.5639 447.657 72.5875L432.371 73.3886C431.572 73.4305 430.965 73.3121 430.55 73.0334C430.184 72.7522 429.829 72.195 429.485 71.3619C428.857 69.8927 428.078 68.8821 427.147 68.3301C426.217 67.778 425.052 67.5386 423.654 67.6119C421.905 67.7035 420.581 68.2486 419.682 69.247C418.78 70.1955 418.361 71.7696 418.427 73.9692C418.447 75.32 418.531 77.3934 418.677 80.1896C418.824 82.9857 418.96 85.1065 419.086 86.5519C419.251 88.7463 419.833 90.2929 420.832 91.1919C421.828 92.0409 423.2 92.4196 424.949 92.328C427.796 92.1788 429.599 90.7325 430.357 87.989C430.562 87.1271 430.832 86.5372 431.166 86.2193C431.549 85.8987 432.166 85.7162 433.015 85.6717L448.301 84.8706C448.751 84.8471 449.134 85.0022 449.452 85.336C449.818 85.6173 450.012 85.9826 450.036 86.432C450.213 90.7786 449.179 94.4628 446.933 97.4845C444.735 100.454 441.772 102.712 438.047 104.259C434.371 105.803 430.285 106.693 425.789 106.929Z" fill="white"/>
<path d="M458.974 104.439C458.424 104.468 457.939 104.293 457.519 103.914C457.098 103.536 456.873 103.072 456.845 102.523L454.309 54.1391C454.28 53.5898 454.455 53.105 454.834 52.6846C455.213 52.2642 455.677 52.0396 456.226 52.0108L494.665 49.9963C495.215 49.9675 495.7 50.1424 496.12 50.5209C496.541 50.8994 496.765 51.3633 496.794 51.9125L497.348 62.473C497.376 63.0223 497.202 63.5071 496.823 63.9275C496.444 64.3479 495.98 64.5725 495.431 64.6013L472.952 65.7794L473.199 70.4979L494.029 69.4062C494.579 69.3774 495.064 69.5523 495.484 69.9308C495.905 70.3093 496.13 70.7731 496.158 71.3224L496.669 81.059C496.698 81.6083 496.523 82.0931 496.144 82.5135C495.765 82.9339 495.301 83.1585 494.752 83.1873L473.921 84.279L474.168 88.9975L497.247 87.788C497.796 87.7592 498.281 87.9341 498.702 88.3126C499.122 88.6911 499.347 89.1549 499.376 89.7042L499.929 100.265C499.958 100.814 499.783 101.299 499.405 101.719C499.026 102.14 498.562 102.364 498.012 102.393L458.974 104.439Z" fill="white"/>
</g>
<defs>
<filter id="filter0_d" x="0.067688" y="49.9933" width="503.865" height="86.0446" filterUnits="userSpaceOnUse" color-interpolation-filters="sRGB">
<feFlood flood-opacity="0" result="BackgroundImageFix"/>
<feColorMatrix in="SourceAlpha" type="matrix" values="0 0 0 0 0 0 0 0 0 0 0 0 0 0 0 0 0 0 127 0"/>
<feOffset dy="4"/>
<feGaussianBlur stdDeviation="2"/>
<feColorMatrix type="matrix" values="0 0 0 0 0 0 0 0 0 0 0 0 0 0 0 0 0 0 0.25 0"/>
<feBlend mode="normal" in2="BackgroundImageFix" result="effect1_dropShadow"/>
<feBlend mode="normal" in="SourceGraphic" in2="effect1_dropShadow" result="shape"/>
</filter>
</defs>
</svg>
